<svg xmlns="http://www.w3.org/2000/svg" width="68.664" height="68.664" viewBox="0 0 68.664 68.664"><g transform="translate(-114 -204)"><path d="M243.834,353.348c-3.115,0-7.435-4.437-8.269-5.327-1.968-2.1-5.267-6.228-5.267-10.34a8.089,8.089,0,0,1,13.537-5.969,8.089,8.089,0,0,1,13.537,5.969c0,4.456-3.313,8.55-5.288,10.594-2.26,2.34-5.777,5.072-8.249,5.072Zm0,0" transform="translate(-95.502 -103.143)" fill="#fff" opacity="0.5"/><path d="M187.749,303.5A25.749,25.749,0,1,1,213.5,277.749,25.778,25.778,0,0,1,187.749,303.5Zm0-47.475a21.726,21.726,0,1,0,21.726,21.726,21.75,21.75,0,0,0-21.726-21.726Zm0,0" transform="translate(-39.417 -39.417)" fill="#ddd"/><path d="M306,252v4.023a21.726,21.726,0,1,1,0,43.452V303.5a25.749,25.749,0,0,0,0-51.5Zm0,0" transform="translate(-157.668 -39.417)" fill="#ddd"/><path d="M296.762,221.568a2.011,2.011,0,0,1-2.012-2.012V206.012a2.012,2.012,0,1,1,4.023,0v13.545a2.011,2.011,0,0,1-2.012,2.012Zm0,0" transform="translate(-148.429 0)" fill="#d6d6d6"/><path d="M296.762,507.318a2.011,2.011,0,0,1-2.012-2.012V491.762a2.012,2.012,0,1,1,4.023,0v13.545a2.011,2.011,0,0,1-2.012,2.012Zm0,0" transform="translate(-148.429 -234.654)" fill="#d6d6d6"/><path d="M415.307,388.773H401.762a2.012,2.012,0,1,1,0-4.023h13.545a2.012,2.012,0,1,1,0,4.023Zm0,0" transform="translate(-234.654 -148.429)" fill="#f4f4f4"/><path d="M129.557,388.773H116.012a2.012,2.012,0,1,1,0-4.023h13.545a2.012,2.012,0,1,1,0,4.023Zm0,0" transform="translate(0 -148.429)" fill="#d6d6d6"/><path d="M306,204v17.568a2.011,2.011,0,0,0,2.012-2.012V206.012A2.011,2.011,0,0,0,306,204Zm0,0" transform="translate(-157.668 0)" fill="#f4f4f4"/><path d="M306,489.75v17.568a2.011,2.011,0,0,0,2.012-2.012V491.762A2.011,2.011,0,0,0,306,489.75Zm0,0" transform="translate(-157.668 -234.654)" fill="#f4f4f4"/><path d="M311.457,329.6A8.031,8.031,0,0,0,306,331.713v21.635c2.473,0,5.99-2.732,8.249-5.072,1.975-2.044,5.287-6.138,5.287-10.594a8.088,8.088,0,0,0-8.079-8.079Zm0,0" transform="translate(-157.668 -103.143)" fill="#fff"/></g></svg>