<svg xmlns="http://www.w3.org/2000/svg" xmlns:xlink="http://www.w3.org/1999/xlink" width="50" height="68.329" viewBox="0 0 50 68.329"><defs><clipPath id="a"><rect width="50" height="68" transform="translate(-0.031 0.332)" fill="#fff"/></clipPath></defs><g transform="translate(-650.969 -1259.332)"><g transform="translate(651 1259)"><path d="M185.593,543.322c0-4.314-9.766-7.81-21.812-7.81s-21.812,3.5-21.812,7.81,9.766,7.81,21.812,7.81,21.812-3.5,21.812-7.81Zm0,0" transform="translate(-138.863 -482.471)" fill="#d3d3d3"/><g transform="translate(0 0)"><g transform="translate(0 0)" clip-path="url(#a)"><path d="M246.453,548.423c0,4.314-9.766,7.81-21.812,7.81a52.574,52.574,0,0,1-12.387-1.381,56,56,0,0,0,9.575.791c12.046,0,21.811-3.5,21.811-7.81,0-2.666-3.729-5.021-9.423-6.43,7.246,1.271,12.236,3.937,12.236,7.021Zm0,0" transform="translate(-199.722 -487.571)" fill="#b5b4b4"/><path d="M170.248,164.623a24.624,24.624,0,1,0-47.576,8.91c2.887,7.449,9.68,10.9,14.442,16.812a35.973,35.973,0,0,1,5.319,9.084l.144.355a3.286,3.286,0,0,0,6.093,0l.109-.271a35.759,35.759,0,0,1,5.138-8.8,37.258,37.258,0,0,1,3.439-3.771c3.195-3.056,6.711-5.391,9.121-9.219a24.674,24.674,0,0,0,3.769-13.1Zm0,0" transform="translate(-120.706 -139.997)" fill="#fff"/><path d="M318.191,164.624a24.675,24.675,0,0,1-3.769,13.1c-2.41,3.828-5.926,6.163-9.121,9.219a37.147,37.147,0,0,0-3.44,3.771,35.768,35.768,0,0,0-5.137,8.8l-.109.271a3.292,3.292,0,0,1-4.759,1.584,3.226,3.226,0,0,0,1.334-1.584l.109-.271a35.767,35.767,0,0,1,5.138-8.8,37.09,37.09,0,0,1,3.44-3.771c3.2-3.057,6.711-5.392,9.121-9.219a24.629,24.629,0,0,0-19.142-37.664q1.016-.071,2.052-.056a24.624,24.624,0,0,1,24.283,24.621Zm0,0" transform="translate(-268.649 -139.998)" fill="#c8c8c8"/></g></g><path d="M201.306,208.762A11.907,11.907,0,1,1,189.4,196.855a11.907,11.907,0,0,1,11.907,11.907Zm0,0" transform="translate(-165.481 -185.087)" fill="#d2064e"/></g></g></svg>