<svg xmlns="http://www.w3.org/2000/svg" width="67.668" height="67.667" viewBox="0 0 67.668 67.667"><g transform="translate(748.425 119.053)"><path d="M-714.352,99.021l-16.316-16.316-17.42,36.8c-.016.035-.932,2.292.319,3.543s3.526.327,3.544.319l36.8-17.419-4.5-4.5" transform="translate(0 -175.093)" fill="#f4f4f4"/><path d="M-590.957,154.986a33.985,33.985,0,0,0-7.409,23.679l21.1-9.987Z" transform="translate(-130.158 -237.821)" fill="#fff"/><path d="M-745.326,123.657c.228-1.485,13.381-28.512,17.714-37.9l-3.052-3.053-17.42,36.8c-.119.26-.911,2.511.446,3.659A3.028,3.028,0,0,0-745.326,123.657Z" transform="translate(-0.002 -175.093)" fill="#ddd"/><circle cx="1.989" cy="1.989" r="1.989" transform="translate(-724.862 -107.925)" fill="#fff"/><circle cx="1.989" cy="1.989" r="1.989" transform="translate(-694.494 -99.902)" fill="#d1d1d1"/><path d="M-590.817,77.733l4.3-2-25.541-25.541-2,4.3" transform="translate(-116.606 -146.877)" fill="#ddd"/><path d="M-541.78,133.377l13.691,13.692,4.3-2-14.983-14.983A34.3,34.3,0,0,0-541.78,133.377Z" transform="translate(-179.334 -216.212)" fill="#f4f4f4"/><path d="M-668.222,125.766l-5.144,10.867a6.015,6.015,0,0,0,6.641-1.267A6.018,6.018,0,0,0-668.222,125.766Z" transform="translate(-65.139 -212.463)" fill="#d2064e"/><path d="M-668.222,125.766l-5.144,10.867a6.036,6.036,0,0,0,4.434.134l3.625-7.66A6.021,6.021,0,0,0-668.222,125.766Z" transform="translate(-65.139 -212.463)" fill="#a80b47"/><path d="M-631.562,270.625l0,0a5.673,5.673,0,0,0-4.206-1.964v0a6.019,6.019,0,0,0-4.274,10.472l10.039-4.752A6.006,6.006,0,0,0-631.562,270.625Z" transform="translate(-92.326 -336.467)" fill="#d2064e"/><path d="M-714.2,261.56l-2.358,4.981a3,3,0,0,0,4.388.149A3.008,3.008,0,0,0-714.2,261.56Z" transform="translate(-27.655 -330.31)" fill="#d2064e"/><circle cx="2.571" cy="2.571" r="2.571" transform="translate(-726.338 -78.615)" fill="#d2064e"/><path d="M-611.009,57.541l1.973-4.23c-.023-.053-.044-.107-.063-.162l-2.958-2.958-.022.048h0l-1.982,4.249Z" transform="translate(-116.606 -146.876)" fill="#d1d1d1"/><path d="M-450.01-20.29a1.084,1.084,0,0,1,.7-1.363c1.671-.535,5.59-2.264,5.888-6.748a8.652,8.652,0,0,1,2.9-6.266c3.174-2.723,7.727-2.363,7.92-2.346a1.084,1.084,0,0,1,.986,1.174,1.084,1.084,0,0,1-1.171.987h0c-.038,0-3.861-.29-6.333,1.84a6.574,6.574,0,0,0-2.136,4.756c-.272,4.092-2.965,7.252-7.39,8.669A1.084,1.084,0,0,1-450.01-20.29Z" transform="translate(-258.931 -71.176)" fill="#f4f4f4"/><g transform="translate(-715.394 -117.991)"><circle cx="1.408" cy="1.408" r="1.408" transform="translate(7.016 16.53)" fill="#ddd"/><circle cx="1.408" cy="1.408" r="1.408" transform="translate(0)" fill="#ddd"/></g><g transform="translate(-719.862 -113.991)"><path d="M-376.284,180.946a1.084,1.084,0,0,1,1.049-1.118l2.16-.068a1.081,1.081,0,0,1,1.117,1.049,1.084,1.084,0,0,1-1.05,1.118l-2.16.068A1.084,1.084,0,0,1-376.284,180.946Z" transform="translate(396.904 -145.33)" fill="#d1d1d1"/><path d="M-531.254-76.427a1.084,1.084,0,0,1-1.049-1.118l.068-2.16a1.082,1.082,0,0,1,1.118-1.049,1.084,1.084,0,0,1,1.049,1.118l-.068,2.16A1.084,1.084,0,0,1-531.254-76.427Z" transform="translate(532.304 80.754)" fill="#d1d1d1"/></g><path d="M-439.58-43a1.084,1.084,0,0,1,1.049-1.118l2.159-.068a1.083,1.083,0,0,1,1.118,1.05,1.084,1.084,0,0,1-1.05,1.118l-2.159.068A1.084,1.084,0,0,1-439.58-43Z" transform="translate(-268.027 -64.971)" fill="#ddd"/><g transform="translate(-717.337 -119.053)"><path d="M-394.252,71.733c-5.392-.952-7.1,2.587-8.346,5.171s-1.923,3.987-5.105,2.642c-2.953-1.248-5.416-1.4-7.322-.451a4.6,4.6,0,0,0-2.136,2.078,1.085,1.085,0,0,0,.991,1.522,1.084,1.084,0,0,0,.993-.647c.012-.028,1.29-2.761,6.631-.5,4.929,2.083,6.561-.917,7.9-3.7,1.252-2.6,2.241-4.645,6.016-3.978a1.083,1.083,0,0,0,1.256-.879A1.084,1.084,0,0,0-394.252,71.733Z" transform="translate(429.936 -46.381)" fill="#f4f4f4"/><path d="M-503.229-119.036a1.084,1.084,0,0,0-.879,1.256c1.067,6.039-5.192,5.2-7.591,8.526-1,1.389-1.03,3.153-.084,5.392,2.19,5.182-.351,6.554-.515,6.636-.118.052-1.193.546-.823,1.372a1.245,1.245,0,0,0,1.708.608c1.225-.54,4.29-3.157,1.627-9.459-1.345-3.182-.012-3.825,2.642-5.105,2.584-1.247,6.124-2.954,5.171-8.346A1.084,1.084,0,0,0-503.229-119.036Z" transform="translate(513.199 119.053)" fill="#f4f4f4"/></g><path d="M-572.324,51.964-596.688,27.6a2.228,2.228,0,0,0-3.151,0,2.228,2.228,0,0,0,0,3.151l24.365,24.364a2.228,2.228,0,0,0,3.151,0A2.228,2.228,0,0,0-572.324,51.964Z" transform="translate(-128.383 -126.704)" fill="#ddd"/><path d="M-505.717,126.522a2.228,2.228,0,0,0,3.151,0,2.228,2.228,0,0,0,0-3.151l-14.142-14.142a34.277,34.277,0,0,0-3.4,2.9Z" transform="translate(-198.14 -198.111)" fill="#f4f4f4"/><path d="M-600.288,30.067h0c.22.5.217.436,2.983,3.2l.06-.13a2.226,2.226,0,0,1,2.392-3.09v0s.7.072.206-.422l-2.025-2.026a2.227,2.227,0,0,0-3.289.153A2.233,2.233,0,0,0-600.288,30.067Z" transform="translate(-128.398 -126.704)" fill="#d1d1d1"/></g></svg>