<svg xmlns="http://www.w3.org/2000/svg" width="96.871" height="93.366" viewBox="0 0 96.871 93.366"><g transform="translate(-623.269 -697.809)"><g transform="translate(642.077 788.391)"><path d="M686.93,1003.529h-.516v-1.14l-.92-1.561h.589l.641,1.114.613-1.114h.467l-.875,1.561Z" transform="translate(-685.494 -1000.786)" fill="#fff"/><path d="M694.161,1003.475a.986.986,0,0,1-.838-.4,1.626,1.626,0,0,1-.3-1,1.521,1.521,0,0,1,.319-.986,1.024,1.024,0,0,1,.841-.4,1,1,0,0,1,.832.4,1.577,1.577,0,0,1,.306.992,1.537,1.537,0,0,1-.318,1.01A1.037,1.037,0,0,1,694.161,1003.475Zm0-.392a.561.561,0,0,0,.445-.218,1.269,1.269,0,0,0,.182-.79,1.481,1.481,0,0,0-.15-.729.5.5,0,0,0-.467-.265q-.625,0-.625,1.007a1.4,1.4,0,0,0,.159.741A.508.508,0,0,0,694.165,1003.083Z" transform="translate(-690.747 -1000.691)" fill="#fff"/><path d="M703.917,1000.828v1.736a1.471,1.471,0,0,1-.079.542.718.718,0,0,1-.306.327,1.049,1.049,0,0,1-.553.138,1.108,1.108,0,0,1-.543-.118.7.7,0,0,1-.305-.326,1.286,1.286,0,0,1-.093-.527v-1.771h.5v1.736a.469.469,0,0,0,.5.579.532.532,0,0,0,.364-.12.6.6,0,0,0,.137-.46v-1.736Z" transform="translate(-697.037 -1000.786)" fill="#fff"/><path d="M712.2,1003.529h-.514l-.419-1.111h-.685v1.111H710.1v-2.7h1.171a1.007,1.007,0,0,1,.718.221.757.757,0,0,1,.23.571.714.714,0,0,1-.487.716Zm-1.619-1.5h.606a.59.59,0,0,0,.391-.111.382.382,0,0,0,.129-.305.363.363,0,0,0-.127-.288.522.522,0,0,0-.354-.11h-.645Z" transform="translate(-702.66 -1000.786)" fill="#fff"/><path d="M723.788,1002.052v1.381h-.216l-.148-.364a.786.786,0,0,1-.73.406.917.917,0,0,1-.825-.42,1.746,1.746,0,0,1-.272-.971,1.6,1.6,0,0,1,.3-.989,1,1,0,0,1,.85-.4.966.966,0,0,1,.671.236,1.041,1.041,0,0,1,.332.589l-.424.075a.553.553,0,0,0-.568-.495.565.565,0,0,0-.468.233,1.167,1.167,0,0,0-.181.719q0,1.023.641,1.023a.545.545,0,0,0,.412-.172.634.634,0,0,0,.163-.455h-.558v-.392Z" transform="translate(-710.685 -1000.691)" fill="#fff"/><path d="M732.467,1000.828v1.736a1.465,1.465,0,0,1-.079.542.717.717,0,0,1-.306.327,1.048,1.048,0,0,1-.553.138,1.108,1.108,0,0,1-.543-.118.7.7,0,0,1-.306-.326,1.286,1.286,0,0,1-.093-.527v-1.771h.5v1.736a.469.469,0,0,0,.5.579.532.532,0,0,0,.364-.12.6.6,0,0,0,.137-.46v-1.736Z" transform="translate(-716.957 -1000.786)" fill="#fff"/><path d="M739.133,1003.529h-.487v-2.7h.487Z" transform="translate(-722.581 -1000.786)" fill="#fff"/><path d="M742.174,1003.529v-2.7h.995a1.109,1.109,0,0,1,.887.391,1.432,1.432,0,0,1,.335.965,1.387,1.387,0,0,1-.345.959,1.25,1.25,0,0,1-.985.386Zm.5-.4h.406a.726.726,0,0,0,.554-.245,1.037,1.037,0,0,0,.228-.73,1.11,1.11,0,0,0-.2-.67.619.619,0,0,0-.526-.275h-.463Z" transform="translate(-725.042 -1000.786)" fill="#fff"/><path d="M752.754,1003.529H751v-2.7h1.737v.4h-1.25v.733h1.005v.391h-1.005v.756h1.268Z" transform="translate(-731.2 -1000.786)" fill="#fff"/><path d="M761.8,1003.529h-.522v-2.284h-.718v-.417h1.959v.417H761.8Z" transform="translate(-737.874 -1000.786)" fill="#fff"/><path d="M768.5,1003.475a.985.985,0,0,1-.838-.4,1.626,1.626,0,0,1-.3-1,1.522,1.522,0,0,1,.318-.986,1.025,1.025,0,0,1,.841-.4.994.994,0,0,1,.832.4,1.577,1.577,0,0,1,.306.992,1.537,1.537,0,0,1-.318,1.01A1.037,1.037,0,0,1,768.5,1003.475Zm0-.392a.561.561,0,0,0,.445-.218,1.269,1.269,0,0,0,.182-.79,1.482,1.482,0,0,0-.15-.729.5.5,0,0,0-.467-.265q-.625,0-.625,1.007a1.4,1.4,0,0,0,.159.741A.508.508,0,0,0,768.508,1003.083Z" transform="translate(-742.62 -1000.691)" fill="#fff"/><path d="M781.572,1003.529h-1.755v-2.7h1.737v.4H780.3v.733h1.005v.391H780.3v.756h1.268Z" transform="translate(-751.307 -1000.786)" fill="#fff"/><path d="M789.051,1003.529h-.473l-1.025-1.726-.077-.129-.073-.125v1.979h-.392v-2.7h.538l.946,1.591.172.291v-1.882h.384Z" transform="translate(-756.327 -1000.786)" fill="#fff"/><path d="M795.978,1000.828v1.864a.939.939,0,0,1-.2.672.86.86,0,0,1-.64.207,1.458,1.458,0,0,1-.393-.041v-.392c.147.01.252.016.313.016a.463.463,0,0,0,.333-.091.546.546,0,0,0,.089-.37v-1.864Z" transform="translate(-761.722 -1000.786)" fill="#fff"/><path d="M801.373,1003.475a.986.986,0,0,1-.838-.4,1.626,1.626,0,0,1-.3-1,1.522,1.522,0,0,1,.318-.986,1.025,1.025,0,0,1,.841-.4.993.993,0,0,1,.832.4,1.578,1.578,0,0,1,.306.992,1.537,1.537,0,0,1-.318,1.01A1.036,1.036,0,0,1,801.373,1003.475Zm0-.392a.561.561,0,0,0,.445-.218,1.269,1.269,0,0,0,.182-.79,1.479,1.479,0,0,0-.15-.729.5.5,0,0,0-.467-.265q-.625,0-.625,1.007a1.4,1.4,0,0,0,.159.741A.508.508,0,0,0,801.378,1003.083Z" transform="translate(-765.555 -1000.691)" fill="#fff"/><path d="M809.168,1003.529h-.517v-1.14l-.92-1.561h.589l.641,1.114.613-1.114h.467l-.875,1.561Z" transform="translate(-770.785 -1000.786)" fill="#fff"/><path d="M819.805,1003.529h-.516v-1.14l-.92-1.561h.589l.641,1.114.613-1.114h.467l-.875,1.561Z" transform="translate(-778.207 -1000.786)" fill="#fff"/><path d="M827.036,1003.475a.985.985,0,0,1-.838-.4,1.626,1.626,0,0,1-.3-1,1.521,1.521,0,0,1,.319-.986,1.024,1.024,0,0,1,.841-.4.994.994,0,0,1,.832.4,1.577,1.577,0,0,1,.306.992,1.539,1.539,0,0,1-.318,1.01A1.037,1.037,0,0,1,827.036,1003.475Zm0-.392a.561.561,0,0,0,.445-.218,1.269,1.269,0,0,0,.182-.79,1.48,1.48,0,0,0-.15-.729.5.5,0,0,0-.467-.265q-.625,0-.625,1.007a1.4,1.4,0,0,0,.159.741A.508.508,0,0,0,827.04,1003.083Z" transform="translate(-783.46 -1000.691)" fill="#fff"/><path d="M836.792,1000.828v1.736a1.461,1.461,0,0,1-.08.542.715.715,0,0,1-.306.327,1.048,1.048,0,0,1-.553.138,1.106,1.106,0,0,1-.543-.118.7.7,0,0,1-.306-.326,1.289,1.289,0,0,1-.093-.527v-1.771h.5v1.736a.469.469,0,0,0,.5.579.533.533,0,0,0,.364-.12.6.6,0,0,0,.136-.46v-1.736Z" transform="translate(-789.75 -1000.786)" fill="#fff"/><path d="M845.077,1003.529h-.515l-.419-1.111h-.685v1.111h-.487v-2.7h1.171a1.007,1.007,0,0,1,.718.221.757.757,0,0,1,.229.571.714.714,0,0,1-.487.716Zm-1.619-1.5h.606a.589.589,0,0,0,.391-.111.382.382,0,0,0,.129-.305.363.363,0,0,0-.127-.288.521.521,0,0,0-.354-.11h-.645Z" transform="translate(-795.373 -1000.786)" fill="#fff"/><path d="M855.2,1003.529h-.522v-2.284h-.719v-.417h1.959v.417H855.2Z" transform="translate(-803.037 -1000.786)" fill="#fff"/><path d="M861.907,1003.529h-.487v-2.7h.487Z" transform="translate(-808.245 -1000.786)" fill="#fff"/><path d="M867.643,1003.529h-.5v-2.365l-.748,2.365h-.255l-.752-2.365v2.365h-.4v-2.7h.762l.566,1.74.556-1.74h.766Z" transform="translate(-810.739 -1000.786)" fill="#fff"/><path d="M877.485,1003.529H875.73v-2.7h1.737v.4h-1.25v.733h1.005v.391h-1.005v.756h1.268Z" transform="translate(-818.23 -1000.786)" fill="#fff"/></g><g transform="translate(623.269 747.655)"><path d="M623.269,867.618h14.963v5.142h-9.307v10.027h7.3v5.142h-7.3V903.61h-5.656Z" transform="translate(-623.269 -867.104)" fill="#fff"/><path d="M682.638,900.572a9.415,9.415,0,0,1-2.211-6.684V874.966a9.418,9.418,0,0,1,2.211-6.685,9.776,9.776,0,0,1,12.752,0,9.422,9.422,0,0,1,2.211,6.685v18.922a9.419,9.419,0,0,1-2.211,6.684,9.776,9.776,0,0,1-12.752,0Zm9.307-6.325V874.605q0-3.547-2.931-3.547t-2.931,3.547v19.642q0,3.548,2.931,3.548T691.945,894.247Z" transform="translate(-663.151 -865.916)" fill="#fff"/><path d="M748.708,900.6q-2.109-2.339-2.108-6.71v-2.056h5.347V894.3q0,3.5,2.931,3.5a2.755,2.755,0,0,0,2.185-.848,4.126,4.126,0,0,0,.746-2.751,7.629,7.629,0,0,0-1.028-3.985,19.048,19.048,0,0,0-3.8-4.139,22.744,22.744,0,0,1-4.885-5.579,11.372,11.372,0,0,1-1.389-5.63,9.384,9.384,0,0,1,2.16-6.607,8.115,8.115,0,0,1,6.273-2.34,7.8,7.8,0,0,1,6.144,2.34q2.082,2.34,2.082,6.71v1.491h-5.348v-1.852a4.137,4.137,0,0,0-.72-2.7,2.612,2.612,0,0,0-2.109-.848q-2.828,0-2.828,3.445a6.794,6.794,0,0,0,1.054,3.651,20.124,20.124,0,0,0,3.831,4.113,21.182,21.182,0,0,1,4.885,5.6,12.443,12.443,0,0,1,1.337,5.913q0,4.423-2.185,6.787a8.218,8.218,0,0,1-6.35,2.365Q750.815,902.937,748.708,900.6Z" transform="translate(-709.323 -865.916)" fill="#fff"/><path d="M813.115,867.618h5.656v14.654h6.067V867.618h5.656V903.61h-5.656v-16.2h-6.067v16.2h-5.656Z" transform="translate(-755.733 -867.104)" fill="#fff"/><path d="M885.491,867.618h7.661l5.861,35.992h-5.656l-1.028-7.147v.1H885.9l-1.028,7.044h-5.245Zm6.17,24.063-2.519-17.791h-.1l-2.468,17.791Z" transform="translate(-802.143 -867.104)" fill="#fff"/></g><g transform="translate(655.636 697.809)"><path d="M755.641,703.914v16.309a.931.931,0,0,1-.053.3.839.839,0,0,1-.862.739H744.1v2.59h10.631a.858.858,0,0,1,.874.931.906.906,0,0,1,.009.09v3.846a.994.994,0,0,1-.02.2.875.875,0,0,1-.863,1.062H744.1v5.137a.907.907,0,0,1-1.814,0v-5.8a.88.88,0,0,1,.121-.456.833.833,0,0,1,.852-.7H753.8v-2.5H743.255a.821.821,0,0,1-.733-.392.837.837,0,0,1-.24-.61v-4.317a.829.829,0,0,1,.668-.845.922.922,0,0,1,.306-.053h10.572V702.812a16.066,16.066,0,0,0-23.474,14.259c0,6.254,3.264,12.508,6.849,17.492V715.357a.822.822,0,0,1,.408-.744.84.84,0,0,1,.589-.22h12.832a.907.907,0,0,1,0,1.813H739.017v20.745a65.168,65.168,0,0,0,7.406,7.873s16.068-13.877,16.068-27.755A16.045,16.045,0,0,0,755.641,703.914Z" transform="translate(-730.354 -701.003)" fill="#d2064e"/><path d="M766.844,747.118a.907.907,0,0,0,0-1.813H754.012a.84.84,0,0,0-.59.22.822.822,0,0,0-.408.744v19.206c.6.834,1.209,1.632,1.813,2.389V747.118Z" transform="translate(-746.166 -731.914)" fill="#fff"/><path d="M770.791,723.63a.927.927,0,0,0-.306.053.83.83,0,0,0-.668.845v4.317a.837.837,0,0,0,.24.61.821.821,0,0,0,.733.392h10.541v2.5H770.791a.833.833,0,0,0-.852.7.88.88,0,0,0-.121.456v5.8a.907.907,0,0,0,1.813,0V734.16h10.631a.875.875,0,0,0,.863-1.061.99.99,0,0,0,.02-.2v-3.846c0-.032-.006-.06-.009-.091a.859.859,0,0,0-.874-.931H771.631v-2.59h10.631a.839.839,0,0,0,.862-.739.931.931,0,0,0,.053-.3V708.091a16.044,16.044,0,0,0-1.814-1.1V723.63Z" transform="translate(-757.89 -705.18)" fill="#fff"/></g></g></svg>