<svg xmlns="http://www.w3.org/2000/svg" width="112.871" height="108.788" viewBox="0 0 112.871 108.788"><g transform="translate(-623.269 -697.809)"><g transform="translate(645.183 803.352)"><path d="M687.167,1003.975h-.6v-1.328l-1.072-1.819h.687l.747,1.3.715-1.3h.544l-1.019,1.819Z" transform="translate(-685.494 -1000.78)" fill="#fff"/><path d="M694.349,1003.935a1.148,1.148,0,0,1-.977-.471,1.9,1.9,0,0,1-.349-1.162,1.771,1.771,0,0,1,.371-1.149,1.193,1.193,0,0,1,.98-.462,1.158,1.158,0,0,1,.969.462,1.837,1.837,0,0,1,.356,1.156,1.79,1.79,0,0,1-.37,1.177A1.208,1.208,0,0,1,694.349,1003.935Zm0-.457a.654.654,0,0,0,.519-.254,1.478,1.478,0,0,0,.212-.92,1.726,1.726,0,0,0-.175-.849.583.583,0,0,0-.544-.308q-.729,0-.729,1.174a1.631,1.631,0,0,0,.186.864A.592.592,0,0,0,694.353,1003.478Z" transform="translate(-690.371 -1000.691)" fill="#fff"/><path d="M704.228,1000.828v2.022a1.715,1.715,0,0,1-.092.632.837.837,0,0,1-.356.381,1.222,1.222,0,0,1-.645.16,1.291,1.291,0,0,1-.633-.138.809.809,0,0,1-.356-.38,1.5,1.5,0,0,1-.109-.615v-2.064h.579v2.022a.546.546,0,0,0,.579.675.619.619,0,0,0,.424-.139.7.7,0,0,0,.159-.536v-2.022Z" transform="translate(-696.211 -1000.78)" fill="#fff"/><path d="M712.549,1003.975h-.6l-.489-1.294h-.8v1.294H710.1v-3.147h1.365a1.173,1.173,0,0,1,.837.257.882.882,0,0,1,.268.665.832.832,0,0,1-.567.835Zm-1.886-1.748h.706a.687.687,0,0,0,.456-.129.445.445,0,0,0,.15-.355.423.423,0,0,0-.148-.336.609.609,0,0,0-.413-.128h-.751Z" transform="translate(-701.432 -1000.78)" fill="#fff"/><path d="M724.15,1002.277v1.609H723.9l-.172-.424a.916.916,0,0,1-.851.473,1.068,1.068,0,0,1-.961-.489,2.034,2.034,0,0,1-.317-1.132,1.862,1.862,0,0,1,.354-1.152,1.167,1.167,0,0,1,.99-.471,1.125,1.125,0,0,1,.781.275,1.212,1.212,0,0,1,.387.686l-.494.088a.645.645,0,0,0-.662-.577.659.659,0,0,0-.545.272,1.36,1.36,0,0,0-.211.837q0,1.193.747,1.192a.635.635,0,0,0,.48-.2.739.739,0,0,0,.19-.53h-.65v-.457Z" transform="translate(-708.883 -1000.691)" fill="#fff"/><path d="M732.778,1000.828v2.022a1.707,1.707,0,0,1-.093.632.835.835,0,0,1-.356.381,1.221,1.221,0,0,1-.645.16,1.29,1.29,0,0,1-.633-.138.809.809,0,0,1-.356-.38,1.5,1.5,0,0,1-.108-.615v-2.064h.579v2.022a.546.546,0,0,0,.579.675.618.618,0,0,0,.424-.139.7.7,0,0,0,.159-.536v-2.022Z" transform="translate(-714.706 -1000.78)" fill="#fff"/><path d="M739.213,1003.975h-.567v-3.147h.567Z" transform="translate(-719.927 -1000.78)" fill="#fff"/><path d="M742.174,1003.975v-3.147h1.159a1.292,1.292,0,0,1,1.033.455,1.669,1.669,0,0,1,.39,1.124,1.616,1.616,0,0,1-.4,1.118,1.457,1.457,0,0,1-1.148.45Zm.583-.463h.473a.846.846,0,0,0,.645-.286,1.207,1.207,0,0,0,.265-.85,1.294,1.294,0,0,0-.231-.78.721.721,0,0,0-.612-.32h-.539Z" transform="translate(-722.213 -1000.78)" fill="#fff"/><path d="M753.044,1003.975H751v-3.147h2.024v.468h-1.457v.854h1.171v.456h-1.171v.88h1.478Z" transform="translate(-727.93 -1000.78)" fill="#fff"/><path d="M762.01,1003.975H761.4v-2.661h-.837v-.486h2.283v.486h-.837Z" transform="translate(-734.126 -1000.78)" fill="#fff"/><path d="M768.692,1003.935a1.148,1.148,0,0,1-.977-.471,1.9,1.9,0,0,1-.349-1.162,1.772,1.772,0,0,1,.371-1.149,1.194,1.194,0,0,1,.98-.462,1.158,1.158,0,0,1,.969.462,1.837,1.837,0,0,1,.356,1.156,1.791,1.791,0,0,1-.37,1.177A1.208,1.208,0,0,1,768.692,1003.935Zm0-.457a.653.653,0,0,0,.519-.254,1.477,1.477,0,0,0,.212-.92,1.726,1.726,0,0,0-.175-.849.583.583,0,0,0-.544-.308q-.728,0-.729,1.174a1.629,1.629,0,0,0,.186.864A.592.592,0,0,0,768.7,1003.478Z" transform="translate(-738.533 -1000.691)" fill="#fff"/><path d="M781.862,1003.975h-2.045v-3.147h2.024v.468h-1.457v.854h1.171v.456h-1.171v.88h1.478Z" transform="translate(-746.599 -1000.78)" fill="#fff"/><path d="M789.388,1003.975h-.551l-1.194-2.011-.09-.15c-.018-.031-.047-.079-.085-.145v2.306h-.457v-3.147h.627l1.1,1.854.2.339v-2.193h.447Z" transform="translate(-751.259 -1000.78)" fill="#fff"/><path d="M796.182,1000.828V1003a1.093,1.093,0,0,1-.234.783,1,1,0,0,1-.746.241,1.7,1.7,0,0,1-.458-.048v-.457c.172.012.294.018.364.018a.54.54,0,0,0,.387-.106.636.636,0,0,0,.1-.431v-2.172Z" transform="translate(-756.268 -1000.78)" fill="#fff"/><path d="M801.561,1003.935a1.149,1.149,0,0,1-.977-.471,1.9,1.9,0,0,1-.348-1.162,1.774,1.774,0,0,1,.371-1.149,1.194,1.194,0,0,1,.98-.462,1.157,1.157,0,0,1,.969.462,1.838,1.838,0,0,1,.356,1.156,1.792,1.792,0,0,1-.37,1.177A1.208,1.208,0,0,1,801.561,1003.935Zm0-.457a.653.653,0,0,0,.519-.254,1.477,1.477,0,0,0,.212-.92,1.723,1.723,0,0,0-.175-.849.583.583,0,0,0-.544-.308q-.728,0-.729,1.174a1.63,1.63,0,0,0,.186.864A.592.592,0,0,0,801.566,1003.478Z" transform="translate(-759.826 -1000.691)" fill="#fff"/><path d="M809.406,1003.975h-.6v-1.328l-1.071-1.819h.687l.747,1.3.714-1.3h.544l-1.019,1.819Z" transform="translate(-764.682 -1000.78)" fill="#fff"/><path d="M820.042,1003.975h-.6v-1.328l-1.072-1.819h.687l.747,1.3.715-1.3h.544l-1.019,1.819Z" transform="translate(-771.573 -1000.78)" fill="#fff"/><path d="M827.224,1003.935a1.147,1.147,0,0,1-.977-.471,1.9,1.9,0,0,1-.349-1.162,1.772,1.772,0,0,1,.371-1.149,1.194,1.194,0,0,1,.98-.462,1.158,1.158,0,0,1,.969.462,1.837,1.837,0,0,1,.356,1.156,1.793,1.793,0,0,1-.37,1.177A1.209,1.209,0,0,1,827.224,1003.935Zm0-.457a.654.654,0,0,0,.519-.254,1.478,1.478,0,0,0,.212-.92,1.724,1.724,0,0,0-.175-.849.583.583,0,0,0-.544-.308q-.728,0-.729,1.174a1.63,1.63,0,0,0,.186.864A.592.592,0,0,0,827.228,1003.478Z" transform="translate(-776.451 -1000.691)" fill="#fff"/><path d="M837.1,1000.828v2.022a1.7,1.7,0,0,1-.093.632.835.835,0,0,1-.356.381,1.222,1.222,0,0,1-.645.16,1.289,1.289,0,0,1-.633-.138.809.809,0,0,1-.356-.38,1.5,1.5,0,0,1-.108-.615v-2.064h.578v2.022a.546.546,0,0,0,.579.675.62.62,0,0,0,.425-.139.7.7,0,0,0,.159-.536v-2.022Z" transform="translate(-782.29 -1000.78)" fill="#fff"/><path d="M845.425,1003.975h-.6l-.488-1.294h-.8v1.294h-.567v-3.147h1.365a1.173,1.173,0,0,1,.837.257.881.881,0,0,1,.267.665.832.832,0,0,1-.567.835Zm-1.886-1.748h.706a.686.686,0,0,0,.456-.129.444.444,0,0,0,.15-.355.424.424,0,0,0-.148-.336.608.608,0,0,0-.413-.128h-.751Z" transform="translate(-787.512 -1000.78)" fill="#fff"/><path d="M855.4,1003.975h-.609v-2.661h-.837v-.486h2.283v.486H855.4Z" transform="translate(-794.627 -1000.78)" fill="#fff"/><path d="M861.987,1003.975h-.567v-3.147h.567Z" transform="translate(-799.463 -1000.78)" fill="#fff"/><path d="M868.081,1003.975H867.5v-2.755l-.871,2.755h-.3l-.876-2.755v2.755h-.463v-3.147h.887l.659,2.027.648-2.027h.892Z" transform="translate(-801.778 -1000.78)" fill="#fff"/><path d="M877.775,1003.975H875.73v-3.147h2.024v.468H876.3v.854h1.171v.456H876.3v.88h1.478Z" transform="translate(-808.733 -1000.78)" fill="#fff"/></g><g transform="translate(623.269 755.887)"><path d="M623.269,867.618H640.7v5.991H629.859v11.683h8.507v5.991h-8.507v18.272h-6.59Z" transform="translate(-623.269 -867.018)" fill="#fff"/><path d="M683,906.3q-2.577-2.755-2.576-7.789V876.46q0-5.032,2.576-7.789t7.429-2.756q4.853,0,7.429,2.756t2.577,7.789v22.047q0,5.033-2.577,7.789t-7.429,2.756Q685.579,909.052,683,906.3Zm10.844-7.369V876.041q0-4.133-3.415-4.133t-3.415,4.133v22.886q0,4.134,3.415,4.134T693.847,898.927Z" transform="translate(-660.297 -865.916)" fill="#fff"/><path d="M749.057,906.326q-2.458-2.725-2.456-7.819v-2.4h6.231v2.876q0,4.074,3.415,4.074a3.211,3.211,0,0,0,2.546-.988,4.808,4.808,0,0,0,.869-3.205,8.889,8.889,0,0,0-1.2-4.643,22.19,22.19,0,0,0-4.433-4.823,26.5,26.5,0,0,1-5.691-6.5,13.25,13.25,0,0,1-1.618-6.56q0-4.972,2.516-7.7t7.309-2.726q4.732,0,7.159,2.726t2.426,7.818V878.2H759.9v-2.157a4.821,4.821,0,0,0-.839-3.145,3.044,3.044,0,0,0-2.457-.988q-3.3,0-3.295,4.014a7.916,7.916,0,0,0,1.228,4.254A23.453,23.453,0,0,0,759,884.967a24.68,24.68,0,0,1,5.691,6.53,14.5,14.5,0,0,1,1.558,6.89q0,5.153-2.546,7.908t-7.4,2.756Q751.512,909.052,749.057,906.326Z" transform="translate(-703.166 -865.916)" fill="#fff"/><path d="M813.115,867.618h6.59v17.074h7.069V867.618h6.59v41.937h-6.59V890.683h-7.069v18.872h-6.59Z" transform="translate(-746.255 -867.018)" fill="#fff"/><path d="M886.459,867.618h8.927l6.829,41.937h-6.59l-1.2-8.328v.12h-7.489l-1.2,8.208h-6.111Zm7.189,28.038-2.935-20.729h-.12l-2.875,20.729Z" transform="translate(-789.345 -867.018)" fill="#fff"/></g><g transform="translate(660.982 697.809)"><path d="M759.818,704.4v19a1.086,1.086,0,0,1-.061.355.978.978,0,0,1-1,.86H746.365v3.018h12.387a1,1,0,0,1,1.018,1.084,1.034,1.034,0,0,1,.011.105V733.3a1.153,1.153,0,0,1-.023.23,1.02,1.02,0,0,1-1.006,1.237H746.365v5.985a1.057,1.057,0,0,1-2.113,0V734a1.024,1.024,0,0,1,.141-.531.971.971,0,0,1,.993-.813h12.282v-2.912H745.386a.956.956,0,0,1-.854-.457.975.975,0,0,1-.28-.711v-5.03a.966.966,0,0,1,.778-.984,1.072,1.072,0,0,1,.356-.062H757.7V703.111a18.72,18.72,0,0,0-27.351,16.614c0,7.287,3.8,14.574,7.981,20.381V717.728a.958.958,0,0,1,.475-.867.978.978,0,0,1,.687-.256h14.951a1.057,1.057,0,0,1,0,2.113h-14V742.89a75.933,75.933,0,0,0,8.629,9.174S767.8,735.895,767.8,719.725A18.7,18.7,0,0,0,759.818,704.4Z" transform="translate(-730.354 -701.003)" fill="#d2064e"/><path d="M769.128,747.418a1.057,1.057,0,0,0,0-2.113H754.177a.979.979,0,0,0-.687.256.958.958,0,0,0-.475.867v22.378c.7.972,1.409,1.9,2.113,2.784V747.418Z" transform="translate(-745.034 -729.703)" fill="#fff"/><path d="M770.952,726.378a1.081,1.081,0,0,0-.356.062.967.967,0,0,0-.778.984v5.03a.976.976,0,0,0,.279.711.957.957,0,0,0,.855.457h12.281v2.912H770.952a.971.971,0,0,0-.993.813,1.026,1.026,0,0,0-.141.531v6.755a1.057,1.057,0,0,0,2.113,0v-5.986h12.387a1.02,1.02,0,0,0,1.006-1.237,1.153,1.153,0,0,0,.023-.23V732.7c0-.037-.007-.07-.01-.105a1,1,0,0,0-1.018-1.084H771.931v-3.018h12.387a.978.978,0,0,0,1-.861,1.089,1.089,0,0,0,.061-.355v-19a18.684,18.684,0,0,0-2.113-1.284v19.389Z" transform="translate(-755.92 -704.881)" fill="#fff"/></g></g></svg>